<?xml version="1.0" encoding="utf-8"?>
<!-- Generator: Adobe Illustrator 16.0.0, SVG Export Plug-In . SVG Version: 6.00 Build 0)  -->
<!DOCTYPE svg PUBLIC "-//W3C//DTD SVG 1.1//EN" "http://www.w3.org/Graphics/SVG/1.1/DTD/svg11.dtd">
<svg version="1.1" id="Layer_1" xmlns="http://www.w3.org/2000/svg" xmlns:xlink="http://www.w3.org/1999/xlink" x="0px" y="0px"
	 width="45px" height="45px" viewBox="0 0 45 45" enable-background="new 0 0 45 45" xml:space="preserve">
<g>
	<g>
		<defs>
			<circle id="SVGID_1_" cx="22.5" cy="22.5" r="22.101"/>
		</defs>
		<clipPath id="SVGID_2_">
			<use xlink:href="#SVGID_1_"  overflow="visible"/>
		</clipPath>
		<g clip-path="url(#SVGID_2_)">
			<path fill="#CC0000" d="M25.462,44.614c-2.118,0-4.238,0-6.357,0c0.003-0.071,0.011-0.141,0.011-0.211
				c0.001-5.921,0.001-11.838,0-17.758c0-0.096-0.009-0.191-0.015-0.33c-0.161,0-0.299,0.002-0.436,0.002
				c-6.081,0-12.161-0.002-18.243,0c-0.128,0-0.257,0.011-0.386,0.016c0-2.553,0-5.104,0-7.655c0.059,0.004,0.117,0.013,0.176,0.013
				c6.198,0.001,12.396,0.002,18.594,0c0.1,0,0.2-0.018,0.311-0.028c0-0.214,0-0.384,0-0.553c0-5.736,0-11.47,0-17.205
				c0-0.17-0.007-0.339-0.012-0.509c2.12,0,4.239,0,6.357,0c-0.004,0.071-0.014,0.14-0.014,0.211c0,5.921,0,11.843,0.002,17.765
				c0,0.095,0.014,0.19,0.021,0.33c6.354,0,12.688,0,19.021,0c0,2.562,0,5.075,0,7.636c-6.357,0-12.692,0-19.044,0
				c0,0.203,0,0.357,0,0.513c0,5.767,0,11.531,0,17.298C25.45,44.304,25.458,44.46,25.462,44.614z"/>
			<path fill="#FFFFFF" d="M25.462,44.614c-0.004-0.154-0.014-0.311-0.014-0.466c0-5.767,0-11.532,0-17.298c0-0.154,0-0.31,0-0.514
				c6.352,0,12.687,0,19.045,0c0-2.561,0-5.074,0-7.636c-6.333,0-12.666,0-19.021,0c-0.009-0.141-0.022-0.234-0.022-0.33
				c0-5.921,0-11.842,0-17.765c0-0.07,0.008-0.141,0.012-0.211c0.471,0,0.941,0,1.412,0c0,3.881,0,7.762,0,11.738
				c1.511-1.502,2.943-2.924,4.376-4.348c2.473-2.463,4.946-4.927,7.419-7.39c0.47,0,0.942,0,1.411,0
				C39.987,0.5,39.897,0.612,39.799,0.71c-4.139,4.114-8.272,8.233-12.423,12.329c-0.363,0.357-0.532,0.701-0.502,1.272
				c0.046,0.87,0.011,1.747,0.011,2.609c0.573,0.11,1.013,0.006,1.461-0.445c4.495-4.504,9.014-8.976,13.522-13.461
				c0.87-0.864,1.729-1.745,2.592-2.619c0.047,0.029,0.126,0.047,0.136,0.086c0.019,0.093,0.005,0.197,0.005,0.296
				c0,14.611,0,29.225,0,43.836c-1.694,0-3.389,0-5.086,0c-4.19-4.163-8.38-8.329-12.631-12.556c0,0.283,0,0.451,0,0.618
				c-0.004,3.979-0.006,7.958-0.01,11.938C26.402,44.614,25.932,44.614,25.462,44.614z M32.904,16.931c3.922,0,7.761,0,11.6,0
				c0-3.836,0-7.639,0-11.528C40.622,9.262,36.786,13.075,32.904,16.931z M44.518,44.577c0-1.453,0.007-2.785-0.009-4.117
				c-0.002-0.149-0.1-0.341-0.201-0.441c-3.934-3.922-7.872-7.835-11.813-11.74c-0.132-0.13-0.332-0.219-0.501-0.222
				c-1.246-0.02-2.494-0.011-3.741-0.009c-0.088,0-0.176,0.015-0.337,0.03C33.469,33.594,38.959,39.055,44.518,44.577z
				 M33.713,28.057c3.632,3.606,7.189,7.143,10.779,10.709c0-3.618,0-7.161,0-10.709C40.915,28.057,37.364,28.057,33.713,28.057z"/>
			<path fill="#FFFFFF" d="M19.105,0.396c0.004,0.169,0.012,0.339,0.012,0.51c0,5.735,0,11.469,0,17.205c0,0.169,0,0.339,0,0.553
				c-0.111,0.011-0.211,0.028-0.311,0.028c-6.198,0.001-12.396,0-18.594,0c-0.059,0-0.116-0.009-0.176-0.014c0-0.566,0-1.133,0-1.7
				c3.576,0,7.151,0,10.801,0c-0.094-0.119-0.116-0.153-0.142-0.179C7.212,13.335,3.729,9.873,0.242,6.413
				c-0.061-0.063-0.137-0.1-0.206-0.149c0-0.481,0-0.964,0-1.446C0.167,4.935,0.302,5.045,0.429,5.17
				c3.845,3.821,7.692,7.641,11.532,11.47c0.23,0.23,0.458,0.335,0.759,0.33c1.188-0.018,2.375-0.007,3.563-0.009
				c0.098,0,0.196-0.016,0.346-0.029c-0.123-0.133-0.198-0.219-0.279-0.298C11,11.316,5.649,5.998,0.298,0.682
				C0.218,0.604,0.123,0.547,0.036,0.48C0.13,0.451,0.224,0.399,0.318,0.398C1.895,0.394,3.473,0.395,5.05,0.395
				c4.191,4.166,8.382,8.33,12.633,12.555c0-0.283,0-0.452,0-0.619c0.003-3.979,0.006-7.958,0.01-11.936
				C18.163,0.396,18.634,0.396,19.105,0.396z"/>
			<path fill="#FFFFFF" d="M0.036,26.331c0.13-0.004,0.258-0.014,0.386-0.014c6.082-0.002,12.162-0.002,18.243-0.002
				c0.137,0,0.275,0,0.436,0c0.006,0.139,0.015,0.232,0.015,0.328c0,5.92,0,11.839,0,17.758c0,0.072-0.007,0.142-0.011,0.211
				c-0.471,0-0.942,0-1.412,0c0-3.881,0-7.76,0-11.736c-1.512,1.502-2.945,2.923-4.376,4.348c-2.473,2.464-4.946,4.926-7.418,7.389
				c-0.471,0-0.942,0-1.413,0c0.093-0.104,0.183-0.216,0.282-0.313c4.139-4.116,8.273-8.234,12.423-12.331
				c0.363-0.357,0.532-0.7,0.502-1.271c-0.045-0.87-0.012-1.746-0.012-2.61c-0.572-0.11-1.011-0.005-1.459,0.444
				c-4.496,4.508-9.015,8.979-13.523,13.464c-0.87,0.865-1.729,1.747-2.592,2.62c-0.022-0.1-0.066-0.197-0.066-0.299
				c-0.005-1.57-0.004-3.146-0.004-4.718c0.085-0.073,0.176-0.141,0.256-0.22c3.701-3.677,7.4-7.353,11.1-11.03
				c0.077-0.077,0.147-0.162,0.274-0.303c-0.75,0-1.428,0.001-2.106-0.002c-3.175-0.003-6.349-0.009-9.524-0.012
				C0.036,27.466,0.036,26.898,0.036,26.331z"/>
			<path fill="#000066" d="M17.693,0.396c-0.003,3.979-0.007,7.958-0.01,11.937c0,0.167,0,0.335,0,0.619
				C13.432,8.726,9.241,4.561,5.051,0.396C9.265,0.396,13.479,0.396,17.693,0.396z"/>
			<path fill="#000066" d="M26.874,44.614c0.005-3.979,0.006-7.958,0.011-11.938c0-0.167,0-0.335,0-0.618
				c4.25,4.227,8.441,8.393,12.63,12.556C35.302,44.614,31.089,44.614,26.874,44.614z"/>
			<path fill="#000066" d="M38.669,0.396c-2.473,2.462-4.946,4.927-7.419,7.39c-1.433,1.424-2.865,2.846-4.376,4.349
				c0-3.976,0-7.857,0-11.738C30.807,0.396,34.736,0.396,38.669,0.396z"/>
			<path fill="#000066" d="M5.898,44.614c2.473-2.463,4.945-4.927,7.418-7.391c1.432-1.423,2.865-2.844,4.376-4.348
				c0,3.977,0,7.857,0,11.738C13.761,44.614,9.83,44.614,5.898,44.614z"/>
			<path fill="#000066" d="M0.036,28.031c3.175,0.003,6.35,0.009,9.524,0.012c0.678,0.003,1.355,0.002,2.106,0.002
				c-0.127,0.141-0.198,0.226-0.274,0.303c-3.7,3.678-7.399,7.354-11.1,11.03c-0.08,0.081-0.171,0.146-0.256,0.22
				C0.036,35.742,0.036,31.887,0.036,28.031z"/>
			<path fill="#CC0000" d="M44.46,0.396c-0.863,0.874-1.722,1.755-2.592,2.619c-4.509,4.485-9.027,8.958-13.522,13.463
				c-0.448,0.451-0.888,0.555-1.461,0.445c0-0.863,0.035-1.739-0.011-2.609c-0.03-0.572,0.139-0.915,0.502-1.272
				c4.15-4.096,8.284-8.215,12.423-12.329c0.098-0.099,0.188-0.21,0.281-0.315C41.54,0.396,43.002,0.396,44.46,0.396z"/>
			<path fill="#CC0000" d="M0.106,44.614c0.863-0.873,1.722-1.755,2.592-2.62c4.51-4.484,9.028-8.956,13.523-13.462
				c0.449-0.449,0.888-0.554,1.459-0.446c0,0.864-0.033,1.741,0.012,2.61c0.029,0.571-0.14,0.914-0.502,1.274
				c-4.15,4.094-8.284,8.214-12.423,12.328c-0.099,0.1-0.188,0.21-0.282,0.315C3.026,44.614,1.566,44.614,0.106,44.614z"/>
			<path fill="#CC0000" d="M0.036,0.48c0.087,0.067,0.182,0.125,0.262,0.202C5.65,5.999,11,11.316,16.351,16.634
				c0.081,0.08,0.155,0.166,0.279,0.298c-0.15,0.013-0.249,0.029-0.346,0.029c-1.188,0.002-2.376-0.009-3.563,0.009
				c-0.302,0.005-0.529-0.1-0.759-0.33C8.122,12.811,4.274,8.992,0.429,5.17C0.302,5.044,0.167,4.935,0.036,4.817
				C0.036,3.371,0.036,1.926,0.036,0.48z"/>
			<path fill="#000066" d="M0.036,6.263C0.105,6.313,0.182,6.35,0.242,6.413c3.485,3.46,6.97,6.922,10.453,10.386
				c0.027,0.026,0.049,0.06,0.142,0.179c-3.65,0-7.226,0-10.801,0C0.036,13.406,0.036,9.834,0.036,6.263z"/>
			<path fill="#000066" d="M32.904,16.931c3.882-3.856,7.718-7.669,11.6-11.528c0,3.889,0,7.692,0,11.528
				C40.665,16.931,36.826,16.931,32.904,16.931z"/>
			<path fill="#CC0000" d="M44.518,44.577c-5.559-5.522-11.05-10.983-16.602-16.499c0.162-0.016,0.25-0.029,0.336-0.029
				c1.249-0.001,2.496-0.012,3.742,0.008c0.169,0.003,0.368,0.094,0.5,0.222c3.942,3.905,7.88,7.819,11.814,11.74
				c0.103,0.101,0.199,0.292,0.202,0.443C44.524,41.792,44.518,43.124,44.518,44.577z"/>
			<path fill="#000066" d="M33.713,28.057c3.651,0,7.202,0,10.779,0c0,3.548,0,7.091,0,10.709
				C40.902,35.199,37.345,31.664,33.713,28.057z"/>
		</g>
	</g>
</g>
</svg>
